# xmcd CD database file
#
# Track frame offsets:
#	150
#	22305
#	50132
#	67950
#	94992
#	113015
#	125855
#	148305
#	175027
#	184662
#	201525
#
# Disc length: 2935 seconds
#
# Revision: 2
# Processed by: cddbd v1.5.1PL2 Copyright (c) Steve Scherf et al.
# Submitted via: CDex 1.51
#
DISCID=b00b750b
DTITLE=Hendrik Meurkens - Amazon River
DYEAR=2005
DGENRE=Jazz
TTITLE0=Mountain Drive
TTITLE1=Amazon River
TTITLE2=Menina Na Janela (The Gigl In The Window)
TTITLE3=Passarim
TTITLE4=Ela e Carioca
TTITLE5=Lingua de Mosquito (Mosquito Tongue)
TTITLE6=O Cantador
TTITLE7=Meu Canario Visinho Azul
TTITLE8=The Peach
TTITLE9=Sem Voce
TTITLE10=Piano na Mangueira
EXTD=YEAR: 2005
EXTT0=
EXTT1=
EXTT2=
EXTT3=
EXTT4=
EXTT5=
EXTT6=
EXTT7=
EXTT8=
EXTT9=
EXTT10=
PLAYORDER=
